<svg width="221" height="23" viewBox="0 0 221 23" fill="none" xmlns="http://www.w3.org/2000/svg">
<g clip-path="url(#clip0_1_1332)">
<path d="M0 0.306152H3.44729V19.7303H13.7995V22.6293H0V0.306152Z" fill="black"/>
<path d="M34.6401 0.306152V14.9881C34.6401 19.676 31.0361 22.9999 25.56 22.9999C20.0839 22.9999 16.4902 19.676 16.4902 14.9881V0.306152H19.9375V14.7162C19.9375 17.746 22.09 19.9258 25.56 19.9258C29.03 19.9258 31.1825 17.746 31.1825 14.7162V0.306152H34.6401Z" fill="black"/>
<path d="M43.2225 0.306152L50.4965 17.6594H50.7645L58.0364 0.306152H62.2197V22.6293H58.9395V6.47467H58.7271L51.9892 22.597H49.2677L42.5298 6.4646H42.3174V22.6293H39.0371V0.306152H43.2205H43.2225Z" fill="black"/>
<path d="M70.6856 22.6293H67.2383V0.306152H70.6856V22.6293Z" fill="black"/>
<path d="M73.7695 22.6293L81.9919 0.306152H85.9753L94.1976 22.6293H90.538L88.4515 16.7206H79.526L77.4292 22.6293H73.7695ZM87.4474 13.8882L84.0784 4.36142H83.8991L80.5301 13.8882H87.4474Z" fill="black"/>
<path d="M125.281 22.6293H122.112L110.498 6.2571H110.285V22.6293H106.838V0.306152H110.027L121.652 16.7005H121.864V0.306152H125.278V22.6293H125.281Z" fill="black"/>
<path d="M139.24 22.9335C133.304 22.9335 128.943 18.5962 128.943 11.4668C128.943 4.3373 133.304 0 139.24 0C145.176 0 149.526 4.32723 149.526 11.4668C149.526 18.6063 145.153 22.9335 139.24 22.9335ZM139.24 3.07419C135.302 3.07419 132.368 6.0275 132.368 11.4668C132.368 16.906 135.302 19.8593 139.24 19.8593C143.178 19.8593 146.112 16.906 146.112 11.4668C146.112 6.0275 143.168 3.07419 139.24 3.07419Z" fill="black"/>
<path d="M168.271 7.5646C167.702 4.67575 165.259 3.07419 162.348 3.07419C158.41 3.07419 155.466 6.04966 155.466 11.4668C155.466 16.8839 158.422 19.8593 162.337 19.8593C165.226 19.8593 167.682 18.29 168.273 15.4334L171.754 15.4435C171.007 19.8573 167.335 22.9315 162.317 22.9315C156.381 22.9315 152.043 18.6043 152.043 11.4647C152.043 4.32522 156.402 0 162.315 0C167.145 0 170.972 2.79014 171.752 7.5646H168.271Z" fill="black"/>
<path d="M179.121 22.6293H175.674V0.306152H179.121V22.6293Z" fill="black"/>
<path d="M182.189 0.306152H199.871V3.20507H192.744V22.6293H189.307V3.20507H182.189V0.306152Z" fill="black"/>
<path d="M210.714 22.9335C204.779 22.9335 200.418 18.5962 200.418 11.4668C200.418 4.3373 204.781 0 210.714 0C216.648 0 221.001 4.32723 221.001 11.4668C221.001 18.6063 216.628 22.9335 210.714 22.9335ZM210.714 3.07419C206.776 3.07419 203.843 6.0275 203.843 11.4668C203.843 16.906 206.776 19.8593 210.714 19.8593C214.652 19.8593 217.586 16.906 217.586 11.4668C217.586 6.0275 214.642 3.07419 210.714 3.07419Z" fill="black"/>
</g>
<defs>
<clipPath id="clip0_1_1332">
<rect width="221" height="23" fill="white"/>
</clipPath>
</defs>
</svg>
