<svg width="350" height="37" viewBox="0 0 350 37" fill="none" xmlns="http://www.w3.org/2000/svg">
<g clip-path="url(#clip0_1_1318)">
<path d="M0 0.492676H5.45951V31.7403H21.8544V36.4038H0V0.492676Z" fill="black"/>
<path d="M54.8593 0.492676V24.1115C54.8593 31.6528 49.1516 37.0001 40.4791 37.0001C31.8066 37.0001 26.1152 31.6528 26.1152 24.1115V0.492676H31.5747V23.674C31.5747 28.5481 34.9837 32.0546 40.4791 32.0546C45.9745 32.0546 49.3835 28.5481 49.3835 23.674V0.492676H54.8593Z" fill="black"/>
<path d="M68.4527 0.492676L79.9725 28.4088H80.397L91.9136 0.492676H98.5388V36.4038H93.3438V10.4159H93.0075L82.3366 36.3519H78.0264L67.3556 10.3997H67.0192V36.4038H61.8242V0.492676H68.4494H68.4527Z" fill="black"/>
<path d="M111.946 36.4038H106.486V0.492676H111.946V36.4038Z" fill="black"/>
<path d="M116.83 36.4038L129.852 0.492676H136.16L149.182 36.4038H143.386L140.082 26.8986H125.947L122.626 36.4038H116.83ZM138.492 22.342L133.156 7.01637H132.872L127.537 22.342H138.492Z" fill="black"/>
<path d="M198.407 36.4038H193.388L174.995 10.0659H174.659V36.4038H169.199V0.492676H174.251L192.66 26.8662H192.996V0.492676H198.404V36.4038H198.407Z" fill="black"/>
<path d="M220.516 36.8931C211.115 36.8931 204.209 29.9157 204.209 18.4465C204.209 6.9774 211.115 0 220.516 0C229.916 0 236.806 6.9612 236.806 18.4465C236.806 29.9319 229.88 36.8931 220.516 36.8931ZM220.516 4.94543C214.279 4.94543 209.633 9.69642 209.633 18.4465C209.633 27.1966 214.279 31.9476 220.516 31.9476C226.752 31.9476 231.399 27.1966 231.399 18.4465C231.399 9.69642 226.736 4.94543 220.516 4.94543Z" fill="black"/>
<path d="M266.494 12.1691C265.593 7.52185 261.723 4.94543 257.113 4.94543C250.876 4.94543 246.213 9.73207 246.213 18.4465C246.213 27.161 250.896 31.9476 257.096 31.9476C261.671 31.9476 265.56 29.4231 266.497 24.8276L272.009 24.8438C270.827 31.9444 265.011 36.8898 257.064 36.8898C247.663 36.8898 240.793 29.9286 240.793 18.4433C240.793 6.95796 247.696 0 257.06 0C264.711 0 270.771 4.48848 272.006 12.1691H266.494Z" fill="black"/>
<path d="M283.676 36.4038H278.217V0.492676H283.676V36.4038Z" fill="black"/>
<path d="M288.535 0.492676H316.538V5.15616H305.25V36.4038H299.807V5.15616H288.535V0.492676Z" fill="black"/>
<path d="M333.709 36.8931C324.308 36.8931 317.402 29.9157 317.402 18.4465C317.402 6.9774 324.312 0 333.709 0C343.106 0 349.999 6.9612 349.999 18.4465C349.999 29.9319 343.074 36.8931 333.709 36.8931ZM333.709 4.94543C327.472 4.94543 322.826 9.69642 322.826 18.4465C322.826 27.1966 327.472 31.9476 333.709 31.9476C339.946 31.9476 344.592 27.1966 344.592 18.4465C344.592 9.69642 339.929 4.94543 333.709 4.94543Z" fill="black"/>
</g>
<defs>
<clipPath id="clip0_1_1318">
<rect width="350" height="37" fill="white"/>
</clipPath>
</defs>
</svg>
