<svg width="627" height="67" viewBox="0 0 627 67" fill="none" xmlns="http://www.w3.org/2000/svg">
<g clip-path="url(#clip0_1_843)">
<path d="M0 0.89209H9.78033V57.4756H39.1506V65.9203H0V0.89209Z" fill="black"/>
<path d="M98.2762 0.89209V43.6613C98.2762 57.3172 88.0513 67.0001 72.5151 67.0001C56.9788 67.0001 46.7832 57.3172 46.7832 43.6613V0.89209H56.5635V42.8691C56.5635 51.6952 62.6704 58.0448 72.5151 58.0448C82.3597 58.0448 88.4666 51.6952 88.4666 42.8691V0.89209H98.2762Z" fill="black"/>
<path d="M122.628 0.89209L143.265 51.4428H144.026L164.657 0.89209H176.525V65.9203H167.219V18.8613H166.616L147.5 65.8264H139.779L120.663 18.8319H120.06V65.9203H110.754V0.89209H122.623H122.628Z" fill="black"/>
<path d="M200.544 65.9203H190.764V0.89209H200.544V65.9203V65.9203Z" fill="black"/>
<path d="M209.295 65.9203L232.623 0.89209H243.924L267.252 65.9203H256.869L250.949 48.7082H225.627L219.678 65.9203H209.295V65.9203ZM248.1 40.4571L238.542 12.7053H238.033L228.475 40.4571H248.1V40.4571Z" fill="black"/>
<path d="M355.433 65.9203H346.442L313.492 18.2275H312.89V65.9203H303.109V0.89209H312.159L345.138 48.6495H345.74V0.89209H355.427V65.9203H355.433Z" fill="black"/>
<path d="M395.038 66.8063C378.198 66.8063 365.826 54.1716 365.826 33.4032C365.826 12.6348 378.198 0 395.038 0C411.879 0 424.222 12.6054 424.222 33.4032C424.222 54.2009 411.815 66.8063 395.038 66.8063ZM395.038 8.95524C383.866 8.95524 375.542 17.5584 375.542 33.4032C375.542 49.248 383.866 57.8511 395.038 57.8511C406.211 57.8511 414.535 49.248 414.535 33.4032C414.535 17.5584 406.182 8.95524 395.038 8.95524Z" fill="black"/>
<path d="M477.405 22.036C475.79 13.6207 468.858 8.95524 460.599 8.95524C449.426 8.95524 441.073 17.6229 441.073 33.4032C441.073 49.1834 449.462 57.8511 460.57 57.8511C468.765 57.8511 475.732 53.2796 477.41 44.9581L487.284 44.9875C485.167 57.8452 474.749 66.8005 460.511 66.8005C443.671 66.8005 431.363 54.1951 431.363 33.3973C431.363 12.5995 443.729 0 460.505 0C474.211 0 485.067 8.12779 487.278 22.036H477.405Z" fill="black"/>
<path d="M508.185 65.9203H498.404V0.89209H508.185V65.9203Z" fill="black"/>
<path d="M516.889 0.89209H567.054V9.33678H546.832V65.9203H537.081V9.33678H516.889V0.89209Z" fill="black"/>
<path d="M597.818 66.8063C580.977 66.8063 568.605 54.1716 568.605 33.4032C568.605 12.6348 580.983 0 597.818 0C614.653 0 627.001 12.6054 627.001 33.4032C627.001 54.2009 614.594 66.8063 597.818 66.8063V66.8063ZM597.818 8.95524C586.645 8.95524 578.321 17.5584 578.321 33.4032C578.321 49.248 586.645 57.8511 597.818 57.8511C608.99 57.8511 617.314 49.248 617.314 33.4032C617.314 17.5584 608.961 8.95524 597.818 8.95524V8.95524Z" fill="black"/>
</g>
<defs>
<clipPath id="clip0_1_843">
<rect width="627" height="67" fill="white"/>
</clipPath>
</defs>
</svg>
